<svg width="99" height="30" viewBox="0 0 99 30" xmlns="http://www.w3.org/2000/svg">
    <path
        d="M20.2334 21.2539C18.165 21.2539 16.4113 20.0287 15.6917 18.0849C14.9277 16.0568 15.1972 13.2258 16.3662 10.2676C16.8162 9.21148 17.3107 8.23957 17.8949 7.35246C20.0084 8.40862 22.3012 9.25389 24.8642 9.25389C27.8766 9.25389 30.8895 7.7748 30.934 4.52093C30.9792 2.23954 28.5961 0 25.224 0C22.3464 0 19.4688 1.26763 17.176 3.50717C14.2081 1.81662 11.0159 0 7.46384 0C3.64228 0 0 2.61949 0 6.50718C0 9.5496 2.47331 12.1273 5.80032 12.1273C8.76756 12.1273 11.1957 10.0144 11.1957 7.18341C11.1957 6.04243 10.4317 4.90145 9.53224 4.39429L7.64372 6.29572C7.91325 6.54959 8.04863 7.01435 8.04863 7.31005C8.04863 8.32381 6.92417 9.16908 5.71008 9.16908C4.22646 9.16908 3.14774 7.98627 3.14774 6.50719C3.14774 4.26764 5.39543 2.95761 7.46384 2.95761C10.1164 2.95761 12.5897 4.39429 15.1972 5.87337C14.388 7.05619 13.7136 8.36622 13.1739 9.8453C11.6903 13.9439 11.7354 17.4086 13.0843 19.9863C14.6581 22.9863 17.715 24.0006 20.0981 24.0006C23.9654 24.0006 28.1016 21.7611 30.2596 16.6906L27.6522 16.0992C26.7076 18.592 23.7855 21.2539 20.2334 21.2539ZM25.0441 2.74614C27.0229 2.74614 27.9668 3.71806 27.9668 4.60574C27.9668 5.70431 26.7076 6.46477 24.9093 6.46477C23.2458 6.46477 21.6268 5.83096 19.9182 4.98568C21.4921 3.54901 23.3355 2.74614 25.0441 2.74614Z"
        fill="var(--text-accent, #5653FE)" />
    <path opacity="0.51"
        d="M17.1745 3.50717C14.2067 1.81662 11.0144 0 7.4624 0V2.9576C10.115 2.9576 12.5883 4.39428 15.1958 5.87337C15.807 5.01908 16.4956 4.22413 17.1745 3.50717Z"
        fill="url(#paint0_linear_164_8739)" />
    <path opacity="0.51"
        d="M27.9674 4.60582C27.9674 5.70439 26.7082 6.46485 24.9099 6.46485C23.2464 6.46485 21.6274 5.83103 19.9188 4.98576C19.2227 5.64086 18.5625 6.40639 17.8955 7.35253C20.009 8.40869 22.3019 9.25396 24.8648 9.25396C27.8772 9.25396 30.8901 7.77487 30.9346 4.521L27.9674 4.60582Z"
        fill="url(#paint1_linear_164_8739)" />
    <path
        d="M41.1895 16.0983C40.7401 17.5773 39.751 18.1266 38.8516 18.1266C38.7168 18.1266 38.6272 18.1266 38.4918 18.0842C39.751 14.0278 38.6272 10.7742 35.5697 9.97131C35.2099 9.88678 34.7154 9.80225 34.4007 9.80225C31.3433 9.80225 28.7352 11.9573 27.5211 15.6335C26.1722 19.8166 27.476 23.0702 30.5786 23.8731C30.9835 23.9576 31.3878 24 31.7927 24C33.7708 24 35.8844 22.859 37.3229 20.6195C37.7278 20.7464 38.1772 20.7885 38.8071 20.7885C40.4706 20.7885 42.7183 20.0702 43.8427 16.6899L41.1895 16.0983ZM36.0643 16.0137C34.8502 16.3094 34.0855 18.3799 34.8953 19.1407C33.9056 20.6619 32.6019 21.4647 31.5677 21.2957C29.9944 20.9997 29.32 19.0983 30.3987 16.1828C31.3433 13.6475 33.3665 12.0842 34.8502 12.5911C35.8392 12.9292 36.3789 14.1547 36.0643 16.0137Z"
        fill="var(--text-accent, #5653FE)" />
    <path opacity="0.51"
        d="M34.8503 12.5911C35.8394 12.9292 36.379 14.1547 36.0644 16.0137C36.0379 16.8492 37.0113 17.8247 38.492 18.0842C39.7512 14.0278 38.6273 10.7742 35.5698 9.9713C35.2101 9.88678 34.7155 9.80225 34.4009 9.80225L34.8503 12.5911Z"
        fill="url(#paint2_linear_164_8739)" />
    <path opacity="0.51"
        d="M34.8958 19.1406C33.9061 20.6618 32.6024 21.4647 31.5682 21.2956L30.5791 23.873C30.984 23.9575 31.3883 23.9999 31.7932 23.9999C33.7714 23.9999 35.8849 22.859 37.3234 20.6194C36.0863 20.3084 35.2155 19.5995 34.8958 19.1406Z"
        fill="url(#paint3_linear_164_8739)" />
    <path
        d="M48.2769 21.2533C46.7927 22.9436 45.1743 24 43.4205 24C40.6332 24 39.4642 21.5914 40.6777 17.4504L42.7912 10.1404H45.8036L43.6004 17.8307C43.1059 19.6054 42.8809 21.0421 43.5108 21.3378C44.1852 21.6335 45.489 20.9155 46.8829 19.1407C48.1867 17.4928 49.266 15.4645 50.1203 12.9292L50.9295 10.1404H53.9419L51.424 18.9716C51.0643 20.1971 50.8844 21.2112 51.4692 21.4224C52.2784 21.7181 53.9419 19.9011 55.2907 16.0983L57.9433 16.69C56.4146 20.8731 54.4815 24 51.2442 24C49.6258 24 48.4117 22.69 48.2769 21.2533Z"
        fill="var(--text-accent, #5653FE)" />
    <path opacity="0.51"
        d="M48.2769 21.2533C46.7927 22.9435 45.1743 24 43.4205 24C40.6332 24 39.4642 21.5914 40.6777 17.4504L43.6004 17.8306C43.1059 19.6054 42.8809 21.0421 43.5108 21.3378C44.1852 21.6335 45.489 20.9155 46.8829 19.1407C48.1867 17.4928 49.266 15.4644 50.1203 12.9292C49.5398 15.0409 48.0357 19.1341 48.2769 21.2533Z"
        fill="url(#paint4_linear_164_8739)" />
    <path
        d="M57.8317 20.4929C58.0116 17.4504 60.5745 15.4224 61.5185 13.3519L58.911 12.549C58.8659 13.4364 58.2811 15.7181 57.8317 16.9433L55.2236 16.3095C55.7188 15.2533 56.303 12.5911 56.303 11.6616C55.7188 11.1968 55.359 9.88681 56.3481 9.16847C57.1573 8.57707 58.4165 8.87277 59.0007 9.71776C59.8099 10.0559 61.5636 10.5206 63.3174 11.0699C64.2613 11.3659 65.026 11.5771 65.2956 12.2109C65.5651 12.8447 64.8906 13.7742 63.4521 15.7181C62.4179 17.1123 60.7544 19.1828 60.7996 20.4504C60.7996 21.0421 61.2039 21.3802 61.7435 21.3802C62.8674 21.3802 64.9358 20.0281 66.3749 16.0983L69.0275 16.69C67.2292 21.5069 64.7108 24 61.5636 24C59.4056 24 57.6969 22.4788 57.8317 20.4929Z"
        fill="var(--text-accent, #5653FE)" />
    <path opacity="0.51"
        d="M58.911 12.549C58.8659 13.4364 58.2811 15.7181 57.8317 16.9433L55.2236 16.3095C55.7188 15.2533 56.303 12.5911 56.303 11.6616C56.7602 12.0306 58.0853 12.269 58.911 12.549Z"
        fill="url(#paint5_linear_164_8739)" />
    <path opacity="0.51"
        d="M57.8311 20.4928C58.0109 17.4504 60.5739 15.4223 61.5178 13.3518C62.8037 13.7291 64.211 14.3209 64.2826 14.5824C64.0432 14.9176 63.7656 15.2936 63.4515 15.718C62.4173 17.1123 60.7538 19.1828 60.7989 20.4504L57.8311 20.4928Z"
        fill="url(#paint6_linear_164_8739)" />
    <path
        d="M77.7551 16.6899L75.1019 16.0982C74.5177 17.7461 73.4384 18.9292 71.9547 19.9011C70.1565 16.8166 68.0429 14.9151 68.5375 13.4785C68.8076 12.5911 69.7516 12.253 70.5163 12.5065C71.1907 12.718 71.4151 13.4363 71.4151 13.6475L73.6634 12.8447C73.6183 12.3799 73.3939 11.7037 72.989 11.1544C72.3145 10.267 71.1907 9.80225 69.9766 9.80225C67.7734 9.80225 66.2892 11.0278 65.7946 12.8025C64.8958 16.0982 67.9978 18.5914 69.5266 21.2112C68.8076 21.5493 67.9978 21.8871 67.1886 22.2252C63.2323 23.8731 62.3329 25.6902 62.6926 27.2957C63.0524 28.8169 64.6257 30 66.7843 30C70.5162 30 73.9329 26.6198 72.9889 22.3943C74.7872 21.2111 76.6757 19.7745 77.7551 16.6899ZM67.2338 27.3802C66.3343 27.5493 65.6599 27.3381 65.5702 26.8733C65.48 26.4928 65.6599 25.859 67.4136 25.014C68.4027 24.5493 69.3467 24.169 70.2912 23.7885C70.2461 25.9859 68.1777 27.2112 67.2338 27.3802Z"
        fill="var(--text-accent, #5653FE)" />
    <path opacity="0.51"
        d="M71.9539 19.9011C70.1556 16.8165 68.0421 14.9151 68.5366 13.4784L65.7938 12.8025C64.8949 16.0982 67.9969 18.5913 69.5257 21.2111C70.3614 20.8389 71.5771 20.182 71.9539 19.9011Z"
        fill="url(#paint7_linear_164_8739)" />
    <path opacity="0.51"
        d="M70.2911 23.7886C70.246 25.986 68.1775 27.2112 67.2336 27.3803L66.7842 30C70.5161 30 73.9327 26.6198 72.9888 22.3943C72.3984 22.8325 71.0916 23.478 70.2911 23.7886Z"
        fill="url(#paint8_linear_164_8739)" />
    <path
        d="M74.3928 22.3521C73.9885 21.5071 73.8538 20.0704 74.4379 18.0844L76.7314 10.1406H79.7437L77.2259 18.9718C76.8661 20.1973 76.6862 21.2114 77.2704 21.4225C78.0802 21.7183 79.7437 19.9013 81.0926 16.0985L83.7452 16.6902C82.2164 20.8733 80.2834 24.0002 77.046 24.0002C75.7423 24.0002 74.7526 23.1128 74.3928 22.3521ZM79.0693 5.07007C80.1035 5.07007 80.7328 5.746 80.7328 6.63339C80.7328 7.52078 80.0133 8.23913 79.0693 8.23913C78.1247 8.23913 77.3607 7.52079 77.3607 6.63339C77.3607 5.74599 78.1247 5.07007 79.0693 5.07007Z"
        fill="var(--text-accent, #5653FE)" />
    <path
        d="M91.5155 19.2673C90.2563 21.8871 88.0982 24 85.1755 24C81.0387 24 80.0947 19.6476 80.7692 16.69C81.4436 13.7742 82.6126 11.5771 83.6016 10.1404H86.7042C85.5804 11.8306 84.3212 14.408 83.7815 16.6054C83.1522 19.1407 83.512 21.2112 85.0407 21.4224C86.839 21.6759 88.6824 19.6476 89.402 16.2249C89.7166 14.704 89.8514 12.8447 89.7166 11.1968L92.5491 10.1404C92.5491 12.8447 92.3698 17.7461 94.573 17.704C95.3822 17.704 95.9663 16.9857 96.2365 16.0983L98.8891 16.69C97.675 19.9857 95.6968 20.4083 94.3931 20.4083C93.3589 20.4083 91.8747 19.7321 91.5155 19.2673Z"
        fill="var(--text-accent, #5653FE)" />
    <path opacity="0.51"
        d="M91.5158 19.2674C90.2566 21.8872 88.0985 24.0001 85.1758 24.0001L85.041 21.4224C86.8393 21.676 88.6827 19.6476 89.4022 16.225C89.5827 15.3528 89.7039 14.3694 89.7492 13.3784C89.7764 14.4646 89.5377 17.534 91.5158 19.2674Z"
        fill="url(#paint9_linear_164_8739)" />
    <defs>
        <linearGradient id="paint0_linear_164_8739" x1="18.4951" y1="6.66035" x2="12.7386"
            y2="3.03682" gradientUnits="userSpaceOnUse">
            <stop offset="0.14967" />
            <stop offset="0.8263" stop-opacity="0" />
        </linearGradient>
        <linearGradient id="paint1_linear_164_8739" x1="17.3518" y1="1.21008" x2="25.4124"
            y2="7.31764" gradientUnits="userSpaceOnUse">
            <stop offset="0.22603" />
            <stop offset="0.62914" stop-opacity="0" />
        </linearGradient>
        <linearGradient id="paint2_linear_164_8739" x1="34.0905" y1="18.066" x2="36.0579"
            y2="14.1676" gradientUnits="userSpaceOnUse">
            <stop />
            <stop offset="1" stop-opacity="0" />
        </linearGradient>
        <linearGradient id="paint3_linear_164_8739" x1="36.7581" y1="17.8991" x2="34.2834"
            y2="21.6295" gradientUnits="userSpaceOnUse">
            <stop />
            <stop offset="1" stop-opacity="0" />
        </linearGradient>
        <linearGradient id="paint4_linear_164_8739" x1="51.8563" y1="17.7533" x2="45.7374"
            y2="18.7532" gradientUnits="userSpaceOnUse">
            <stop offset="0.21535" />
            <stop offset="1" stop-opacity="0" />
        </linearGradient>
        <linearGradient id="paint5_linear_164_8739" x1="58.3804" y1="9.48258" x2="57.0422"
            y2="15.2202" gradientUnits="userSpaceOnUse">
            <stop offset="0.20281" />
            <stop offset="1" stop-opacity="0" />
        </linearGradient>
        <linearGradient id="paint6_linear_164_8739" x1="63.8664" y1="12.5622" x2="61.6232"
            y2="16.5567" gradientUnits="userSpaceOnUse">
            <stop offset="0.05566" />
            <stop offset="1" stop-opacity="0" />
        </linearGradient>
        <linearGradient id="paint7_linear_164_8739" x1="72.648" y1="22.7351" x2="69.8043"
            y2="18.0022" gradientUnits="userSpaceOnUse">
            <stop offset="0.14047" />
            <stop offset="1" stop-opacity="0" />
        </linearGradient>
        <linearGradient id="paint8_linear_164_8739" x1="67.7264" y1="22.9709" x2="69.7664"
            y2="26.4208" gradientUnits="userSpaceOnUse">
            <stop offset="0.15136" />
            <stop offset="1" stop-opacity="0" />
        </linearGradient>
        <linearGradient id="paint9_linear_164_8739" x1="93.1171" y1="15.0419" x2="86.8556"
            y2="20.6184" gradientUnits="userSpaceOnUse">
            <stop />
            <stop offset="1" stop-opacity="0" />
        </linearGradient>
    </defs>
</svg>