<svg width="129" height="21" viewBox="0 0 129 21" fill="none" xmlns="http://www.w3.org/2000/svg">
<path d="M9.60326 1.81699C9.97008 1.07374 11.0299 1.07374 11.3967 1.81699L13.3532 5.78122C13.4989 6.07636 13.7804 6.28093 14.1061 6.32826L18.4809 6.96395C19.3012 7.08314 19.6287 8.09111 19.0351 8.66965L15.8695 11.7554C15.6338 11.9851 15.5263 12.3161 15.5819 12.6405L16.3292 16.9976C16.4693 17.8145 15.6119 18.4375 14.8783 18.0518L10.9653 15.9946C10.674 15.8415 10.326 15.8415 10.0347 15.9946L6.12173 18.0518C5.3881 18.4375 4.53067 17.8145 4.67078 16.9976L5.41808 12.6405C5.47372 12.3161 5.36617 11.9851 5.13048 11.7554L1.96486 8.66965C1.37134 8.09111 1.69885 7.08314 2.51907 6.96395L6.89386 6.32826C7.21957 6.28093 7.50114 6.07636 7.6468 5.78122L9.60326 1.81699Z" fill="#FFAD33"/>
<path d="M36.6033 1.81699C36.9701 1.07374 38.0299 1.07374 38.3967 1.81699L40.3532 5.78122C40.4989 6.07636 40.7804 6.28093 41.1061 6.32826L45.4809 6.96395C46.3012 7.08314 46.6287 8.09111 46.0351 8.66965L42.8695 11.7554C42.6338 11.9851 42.5263 12.3161 42.5819 12.6405L43.3292 16.9976C43.4693 17.8145 42.6119 18.4375 41.8783 18.0518L37.9653 15.9946C37.674 15.8415 37.326 15.8415 37.0347 15.9946L33.1217 18.0518C32.3881 18.4375 31.5307 17.8145 31.6708 16.9976L32.4181 12.6405C32.4737 12.3161 32.3662 11.9851 32.1305 11.7554L28.9649 8.66965C28.3713 8.09111 28.6988 7.08314 29.5191 6.96395L33.8939 6.32826C34.2196 6.28093 34.5011 6.07636 34.6468 5.78122L36.6033 1.81699Z" fill="#FFAD33"/>
<path d="M63.6033 1.81699C63.9701 1.07374 65.0299 1.07374 65.3967 1.81699L67.3532 5.78122C67.4989 6.07636 67.7804 6.28093 68.1061 6.32826L72.4809 6.96395C73.3012 7.08314 73.6287 8.09111 73.0351 8.66965L69.8695 11.7554C69.6338 11.9851 69.5263 12.3161 69.5819 12.6405L70.3292 16.9976C70.4693 17.8145 69.6119 18.4375 68.8783 18.0518L64.9653 15.9946C64.674 15.8415 64.326 15.8415 64.0347 15.9946L60.1217 18.0518C59.3881 18.4375 58.5307 17.8145 58.6708 16.9976L59.4181 12.6405C59.4737 12.3161 59.3662 11.9851 59.1305 11.7554L55.9649 8.66965C55.3713 8.09111 55.6988 7.08314 56.5191 6.96395L60.8939 6.32826C61.2196 6.28093 61.5011 6.07636 61.6468 5.78122L63.6033 1.81699Z" fill="#FFAD33"/>
<path d="M90.6033 1.81699C90.9701 1.07374 92.0299 1.07374 92.3967 1.81699L94.3532 5.78122C94.4989 6.07636 94.7804 6.28093 95.1061 6.32826L99.4809 6.96395C100.301 7.08314 100.629 8.09111 100.035 8.66965L96.8695 11.7554C96.6338 11.9851 96.5263 12.3161 96.5819 12.6405L97.3292 16.9976C97.4693 17.8145 96.6119 18.4375 95.8783 18.0518L91.9653 15.9946C91.674 15.8415 91.326 15.8415 91.0347 15.9946L87.1217 18.0518C86.3881 18.4375 85.5307 17.8145 85.6708 16.9976L86.4181 12.6405C86.4737 12.3161 86.3662 11.9851 86.1305 11.7554L82.9649 8.66965C82.3713 8.09111 82.6988 7.08314 83.5191 6.96395L87.8939 6.32826C88.2196 6.28093 88.5011 6.07636 88.6468 5.78122L90.6033 1.81699Z" fill="#FFAD33"/>
<path d="M117.603 1.81699C117.97 1.07374 119.03 1.07374 119.397 1.81699L121.353 5.78122C121.499 6.07636 121.78 6.28093 122.106 6.32826L126.481 6.96395C127.301 7.08314 127.629 8.09111 127.035 8.66965L123.87 11.7554C123.634 11.9851 123.526 12.3161 123.582 12.6405L124.329 16.9976C124.469 17.8145 123.612 18.4375 122.878 18.0518L118.965 15.9946C118.674 15.8415 118.326 15.8415 118.035 15.9946L114.122 18.0518C113.388 18.4375 112.531 17.8145 112.671 16.9976L113.418 12.6405C113.474 12.3161 113.366 11.9851 113.13 11.7554L109.965 8.66965C109.371 8.09111 109.699 7.08314 110.519 6.96395L114.894 6.32826C115.22 6.28093 115.501 6.07636 115.647 5.78122L117.603 1.81699Z" fill="#FFAD33"/>
</svg>
