<svg width="17" height="16" viewBox="0 0 17 16" fill="none" xmlns="http://www.w3.org/2000/svg">
<path d="M8.968 1.46337L13.6347 3.21337C13.8889 3.30866 14.1079 3.47928 14.2626 3.70241C14.4172 3.92554 14.5 4.19056 14.5 4.46204V8.03737C14.5 9.15166 14.1898 10.2439 13.604 11.1918C13.0182 12.1397 12.18 12.9057 11.1833 13.404L8.94733 14.522C8.80845 14.5915 8.65529 14.6277 8.5 14.6277C8.34471 14.6277 8.19155 14.5915 8.05267 14.522L5.81667 13.404C4.82003 12.9057 3.98184 12.1397 3.39605 11.1918C2.81025 10.2439 2.49998 9.15166 2.5 8.03737V4.46204C2.49997 4.19056 2.5828 3.92554 2.73744 3.70241C2.89207 3.47928 3.11113 3.30866 3.36533 3.21337L8.032 1.46337C8.33375 1.35026 8.66625 1.35026 8.968 1.46337ZM8.5 2.71204L3.83333 4.46204V8.03737C3.83349 8.90395 4.07493 9.75337 4.53061 10.4905C4.98629 11.2276 5.63821 11.8232 6.41333 12.2107L8.5 13.2554L10.5867 12.212C11.362 11.8245 12.014 11.2286 12.4697 10.4912C12.9254 9.75388 13.1668 8.90418 13.1667 8.03737V4.46204L8.5 2.71204Z" fill="#5653FE"/>
<path fill-rule="evenodd" clip-rule="evenodd" d="M11.6442 4.58342C12.0583 4.84698 12.1804 5.39639 11.9169 5.81056L8.80575 10.6994C8.661 10.9269 8.42083 11.0764 8.15282 11.1058C7.88481 11.1352 7.61794 11.0414 7.42729 10.8508L5.64951 9.07299C5.30238 8.72585 5.30238 8.16304 5.64951 7.81591C5.99664 7.46878 6.55946 7.46878 6.90659 7.81591L7.90082 8.81014L10.417 4.85611C10.6806 4.44194 11.23 4.31985 11.6442 4.58342Z" fill="#5653FE"/>
</svg>
